<mxfile host="app.diagrams.net" modified="2022-09-20T11:51:57.568Z" agent="5.0 (Windows NT 10.0; Win64; x64) AppleWebKit/537.36 (KHTML, like Gecko) Chrome/105.0.0.0 Safari/537.36" etag="KiqgVICtjMyHCmFgYBdx" version="20.3.3" type="github">
  <diagram id="9jtazCtX-hGcdnTB_V7d" name="Página-1">
    <mxGraphModel dx="813" dy="435" grid="1" gridSize="10" guides="1" tooltips="1" connect="1" arrows="1" fold="1" page="1" pageScale="1" pageWidth="827" pageHeight="1169" math="0" shadow="0">
      <root>
        <mxCell id="0" />
        <mxCell id="1" parent="0" />
        <mxCell id="YcZC6PWlFh9luTisq_Hj-60" style="edgeStyle=orthogonalEdgeStyle;rounded=0;orthogonalLoop=1;jettySize=auto;html=1;entryX=0.5;entryY=0;entryDx=0;entryDy=0;fontSize=12;" edge="1" parent="1" source="YcZC6PWlFh9luTisq_Hj-55" target="YcZC6PWlFh9luTisq_Hj-57">
          <mxGeometry relative="1" as="geometry" />
        </mxCell>
        <mxCell id="YcZC6PWlFh9luTisq_Hj-55" value="INICIO" style="rounded=1;whiteSpace=wrap;html=1;strokeWidth=1;fontSize=12;" vertex="1" parent="1">
          <mxGeometry x="400" y="350" width="80" height="20" as="geometry" />
        </mxCell>
        <mxCell id="YcZC6PWlFh9luTisq_Hj-64" style="edgeStyle=orthogonalEdgeStyle;rounded=0;orthogonalLoop=1;jettySize=auto;html=1;entryX=0.5;entryY=0;entryDx=0;entryDy=0;fontSize=12;" edge="1" parent="1" source="YcZC6PWlFh9luTisq_Hj-56" target="YcZC6PWlFh9luTisq_Hj-59">
          <mxGeometry relative="1" as="geometry" />
        </mxCell>
        <mxCell id="YcZC6PWlFh9luTisq_Hj-56" value="&lt;b&gt;escribir ( &quot;&lt;/b&gt;introduzca el segundo número:&amp;nbsp; &lt;b&gt;&quot; )&lt;/b&gt;" style="shape=parallelogram;perimeter=parallelogramPerimeter;whiteSpace=wrap;html=1;fixedSize=1;strokeWidth=1;fontSize=12;" vertex="1" parent="1">
          <mxGeometry x="272" y="500" width="336" height="20" as="geometry" />
        </mxCell>
        <mxCell id="YcZC6PWlFh9luTisq_Hj-61" style="edgeStyle=orthogonalEdgeStyle;rounded=0;orthogonalLoop=1;jettySize=auto;html=1;entryX=0.5;entryY=0;entryDx=0;entryDy=0;fontSize=12;" edge="1" parent="1" source="YcZC6PWlFh9luTisq_Hj-57" target="YcZC6PWlFh9luTisq_Hj-58">
          <mxGeometry relative="1" as="geometry" />
        </mxCell>
        <mxCell id="YcZC6PWlFh9luTisq_Hj-57" value="&lt;b&gt;escribir ( &quot;&lt;/b&gt;introduzca el primer número:&amp;nbsp; &lt;b&gt;&quot; )&lt;/b&gt;" style="shape=parallelogram;perimeter=parallelogramPerimeter;whiteSpace=wrap;html=1;fixedSize=1;strokeWidth=1;fontSize=12;" vertex="1" parent="1">
          <mxGeometry x="272" y="400" width="336" height="20" as="geometry" />
        </mxCell>
        <mxCell id="YcZC6PWlFh9luTisq_Hj-63" style="edgeStyle=orthogonalEdgeStyle;rounded=0;orthogonalLoop=1;jettySize=auto;html=1;entryX=0.5;entryY=0;entryDx=0;entryDy=0;fontSize=12;" edge="1" parent="1" source="YcZC6PWlFh9luTisq_Hj-58" target="YcZC6PWlFh9luTisq_Hj-56">
          <mxGeometry relative="1" as="geometry" />
        </mxCell>
        <mxCell id="YcZC6PWlFh9luTisq_Hj-58" value="&lt;b&gt;leer ( &lt;/b&gt;a&lt;b&gt; )&lt;/b&gt;" style="shape=parallelogram;perimeter=parallelogramPerimeter;whiteSpace=wrap;html=1;fixedSize=1;strokeWidth=1;fontSize=12;" vertex="1" parent="1">
          <mxGeometry x="380" y="450" width="120" height="20" as="geometry" />
        </mxCell>
        <mxCell id="YcZC6PWlFh9luTisq_Hj-67" style="edgeStyle=orthogonalEdgeStyle;rounded=0;orthogonalLoop=1;jettySize=auto;html=1;entryX=0.5;entryY=0;entryDx=0;entryDy=0;fontSize=12;" edge="1" parent="1" source="YcZC6PWlFh9luTisq_Hj-59" target="YcZC6PWlFh9luTisq_Hj-65">
          <mxGeometry relative="1" as="geometry" />
        </mxCell>
        <mxCell id="YcZC6PWlFh9luTisq_Hj-59" value="&lt;b&gt;leer ( &lt;/b&gt;b&lt;b&gt;&amp;nbsp;)&lt;/b&gt;" style="shape=parallelogram;perimeter=parallelogramPerimeter;whiteSpace=wrap;html=1;fixedSize=1;strokeWidth=1;fontSize=12;" vertex="1" parent="1">
          <mxGeometry x="380" y="550" width="120" height="20" as="geometry" />
        </mxCell>
        <mxCell id="YcZC6PWlFh9luTisq_Hj-68" style="edgeStyle=orthogonalEdgeStyle;rounded=0;orthogonalLoop=1;jettySize=auto;html=1;entryX=0.5;entryY=0;entryDx=0;entryDy=0;fontSize=12;" edge="1" parent="1" source="YcZC6PWlFh9luTisq_Hj-65" target="YcZC6PWlFh9luTisq_Hj-66">
          <mxGeometry relative="1" as="geometry" />
        </mxCell>
        <mxCell id="YcZC6PWlFh9luTisq_Hj-65" value="c &amp;lt;- a + b" style="rounded=0;whiteSpace=wrap;html=1;strokeWidth=1;fontSize=12;" vertex="1" parent="1">
          <mxGeometry x="400" y="600" width="80" height="20" as="geometry" />
        </mxCell>
        <mxCell id="YcZC6PWlFh9luTisq_Hj-70" style="edgeStyle=orthogonalEdgeStyle;rounded=0;orthogonalLoop=1;jettySize=auto;html=1;entryX=0.5;entryY=0;entryDx=0;entryDy=0;fontSize=12;" edge="1" parent="1" source="YcZC6PWlFh9luTisq_Hj-66" target="YcZC6PWlFh9luTisq_Hj-69">
          <mxGeometry relative="1" as="geometry" />
        </mxCell>
        <mxCell id="YcZC6PWlFh9luTisq_Hj-66" value="&lt;b&gt;escribir ( &quot;&lt;/b&gt;La suma es:&amp;nbsp;&lt;b&gt;&amp;nbsp; &quot;,&amp;nbsp;&lt;/b&gt;c&lt;b&gt; )&lt;/b&gt;" style="shape=parallelogram;perimeter=parallelogramPerimeter;whiteSpace=wrap;html=1;fixedSize=1;strokeWidth=1;fontSize=12;" vertex="1" parent="1">
          <mxGeometry x="335" y="650" width="210" height="20" as="geometry" />
        </mxCell>
        <mxCell id="YcZC6PWlFh9luTisq_Hj-69" value="FIN" style="rounded=0;whiteSpace=wrap;html=1;strokeWidth=1;fontSize=12;" vertex="1" parent="1">
          <mxGeometry x="410" y="700" width="60" height="20" as="geometry" />
        </mxCell>
        <mxCell id="YcZC6PWlFh9luTisq_Hj-71" value="" style="whiteSpace=wrap;html=1;strokeWidth=1;fontSize=12;" vertex="1" parent="1">
          <mxGeometry x="80" y="290" width="120" height="60" as="geometry" />
        </mxCell>
      </root>
    </mxGraphModel>
  </diagram>
</mxfile>
